<?xml version="1.0" encoding="UTF-8" standalone="no"?>
<svg width="23px" height="3px" viewBox="0 0 23 3" version="1.1" xmlns="http://www.w3.org/2000/svg" xmlns:xlink="http://www.w3.org/1999/xlink">
    <!-- Generator: Sketch 45.1 (43504) - http://www.bohemiancoding.com/sketch -->
    <title>Fill 1</title>
    <desc>Created with Sketch.</desc>
    <defs></defs>
    <g id="—-Fin-Design-/-Responsive" stroke="none" stroke-width="1" fill="none" fill-rule="evenodd">
        <g id="Desktop-new-grid-" transform="translate(-331.000000, -2134.000000)" fill="#000000">
            <g id="skills" transform="translate(189.000000, 1983.000000)">
                <g id="explore" transform="translate(69.000000, 42.000000)">
                    <path d="M93.7678212,110.174401 C93.3231871,110.656865 92.9718554,111.037639 92.2457056,111.037639 C91.5198775,111.037639 91.1691892,110.656544 90.7251986,110.174722 C90.2432436,109.651198 89.6435346,109 88.4926981,109 C87.3421833,109 86.7431177,109.651198 86.260841,110.174401 C85.8165286,110.656865 85.465197,111.037639 84.7393688,111.037639 C84.0135407,111.037639 83.6628525,110.656544 83.2185402,110.174722 C82.7365852,109.651198 82.1375196,109 80.9866831,109 C79.8371335,109 79.2371027,109.651198 78.7551477,110.174722 C78.3114788,110.656865 77.9611124,111.037639 77.2352842,111.037639 C76.5091344,111.037639 76.1587679,110.656544 75.7147773,110.174722 C75.2328223,109.651198 74.6327915,109 73.4825985,109 C73.2162041,109 73,109.215569 73,109.48118 C73,109.746792 73.2162041,109.962361 73.4825985,109.962361 C74.2087483,109.962361 74.5591148,110.343456 75.0037489,110.825278 C75.4853822,111.348802 76.0850912,112 77.2352842,112 C78.3851556,112 78.9848646,111.348802 79.4668196,110.825278 C79.9104885,110.343135 80.2611767,109.962361 80.9866831,109.962361 C81.7128329,109.962361 82.0635212,110.343456 82.50719,110.825278 C82.9894668,111.348802 83.5885323,112 84.7393688,112 C85.8898836,112 86.4892709,111.348802 86.9712259,110.825278 C87.41586,110.343135 87.76687,109.962361 88.4926981,109.962361 C89.2188479,109.962361 89.5695361,110.343456 90.0141702,110.825278 C90.4954818,111.348802 91.0951908,112 92.2457056,112 C93.3965421,112 93.9965729,111.348802 94.4785279,110.825278 C94.9228402,110.343135 95.2738502,109.962361 96,109.962361 L96,109 C94.8494852,109 94.2494545,109.651198 93.7678212,110.174401" id="Fill-1"></path>
                </g>
            </g>
        </g>
    </g>
</svg>